<svg width="25" height="23" viewBox="0 0 25 23"  xmlns="http://www.w3.org/2000/svg">
<path d="M12.5 22.242C12.1447 22.2421 11.8014 22.1131 11.534 21.879C10.524 21 9.55 20.166 8.691 19.434C6.46707 17.6596 4.38999 15.7086 2.48 13.6C0.940384 11.9403 0.0586668 9.77613 3.9353e-06 7.513C-0.0334415 5.54827 0.674585 3.64306 1.983 2.177C2.61822 1.48486 3.39144 0.933532 4.25282 0.558566C5.11419 0.1836 6.04458 -0.00667772 6.984 2.12368e-06C8.40917 -0.00620151 9.79417 0.47192 10.912 1.356C11.518 1.82982 12.0528 2.38818 12.5 3.014C12.9473 2.38819 13.4821 1.82983 14.088 1.356C15.2058 0.47192 16.5908 -0.00620151 18.016 2.12368e-06C18.9553 -0.0065377 19.8855 0.183808 20.7466 0.55877C21.6078 0.933731 22.3809 1.48499 23.016 2.177C24.3248 3.64291 25.0332 5.54814 25 7.513C24.9421 9.7761 24.0607 11.9404 22.521 13.6C20.6123 15.7057 18.5369 17.654 16.315 19.426C15.454 20.159 14.479 20.99 13.467 21.876C13.1996 22.11 12.8563 22.239 12.501 22.239L12.5 22.242ZM6.984 1.465C6.24749 1.45865 5.51781 1.60664 4.84197 1.89944C4.16613 2.19223 3.5591 2.62335 3.06 3.165C1.99957 4.36039 1.42831 5.91136 1.46 7.509C1.51622 9.43492 2.28065 11.2725 3.607 12.67C5.46386 14.7088 7.47988 16.5968 9.636 18.316C9.6677 18.343 9.69955 18.3702 9.73156 18.3975C10.57 19.1123 11.5134 19.9167 12.493 20.774C13.516 19.883 14.493 19.048 15.36 18.312C17.5161 16.593 19.5321 14.7054 21.389 12.667C22.7127 11.2701 23.4756 9.43462 23.532 7.511C23.5637 5.91336 22.9924 4.36239 21.932 3.167C21.4329 2.62535 20.8259 2.19423 20.15 1.90144C19.4742 1.60864 18.7445 1.46065 18.008 1.467C16.9076 1.46342 15.8385 1.83363 14.976 2.517C14.2979 3.0599 13.7251 3.72252 13.286 4.472C13.2041 4.60959 13.0879 4.72354 12.9487 4.80267C12.8095 4.88181 12.6521 4.92341 12.492 4.92341C12.3319 4.92341 12.1745 4.88181 12.0353 4.80267C11.8961 4.72354 11.7799 4.60959 11.698 4.472C11.259 3.72244 10.6862 3.0598 10.008 2.517C9.14547 1.83363 8.07644 1.46342 6.976 1.467L6.984 1.465Z" fill="#BEF264"/>
<path d="M6.984 1.465C6.24749 1.45865 5.51781 1.60664 4.84197 1.89944C4.16613 2.19223 3.5591 2.62335 3.06 3.165C1.99957 4.36039 1.42831 5.91136 1.46 7.509C1.51622 9.43492 2.28065 11.2725 3.607 12.67C5.46386 14.7088 7.47988 16.5968 9.636 18.316L9.73156 18.3975C10.57 19.1123 11.5134 19.9167 12.493 20.774C13.516 19.883 14.493 19.048 15.36 18.312C17.5161 16.593 19.5321 14.7054 21.389 12.667C22.7127 11.2701 23.4756 9.43462 23.532 7.511C23.5637 5.91336 22.9924 4.36239 21.932 3.167C21.4329 2.62535 20.8259 2.19423 20.15 1.90144C19.4742 1.60864 18.7445 1.46065 18.008 1.467C16.9076 1.46342 15.8385 1.83363 14.976 2.517C14.2979 3.0599 13.7251 3.72252 13.286 4.472C13.2041 4.60959 13.0879 4.72354 12.9487 4.80267C12.8095 4.88181 12.6521 4.92341 12.492 4.92341C12.3319 4.92341 12.1745 4.88181 12.0353 4.80267C11.8961 4.72354 11.7799 4.60959 11.698 4.472C11.259 3.72244 10.6862 3.0598 10.008 2.517C9.14547 1.83363 8.07644 1.46342 6.976 1.467L6.984 1.465Z" fill="#BEF264"/>
</svg>
