<svg xmlns="http://www.w3.org/2000/Svg" width="25" height="22.242" viewBox="0 0 25 22.242">
  <path d="M12.5,22.242a1.466,1.466,0,0,1-.966-.363C10.524,21,9.55,20.166,8.691,19.434l0,0A52.868,52.868,0,0,1,2.48,13.6,9.305,9.305,0,0,1,0,7.513,7.814,7.814,0,0,1,1.983,2.177,6.723,6.723,0,0,1,6.984,0a6.288,6.288,0,0,1,3.928,1.356A8.036,8.036,0,0,1,12.5,3.014a8.037,8.037,0,0,1,1.588-1.658A6.288,6.288,0,0,1,18.016,0a6.723,6.723,0,0,1,5,2.177A7.814,7.814,0,0,1,25,7.513,9.3,9.3,0,0,1,22.521,13.6a52.862,52.862,0,0,1-6.206,5.826c-.861.733-1.836,1.564-2.848,2.45a1.467,1.467,0,0,1-.966.363ZM6.984,1.465a5.274,5.274,0,0,0-3.924,1.7,6.356,6.356,0,0,0-1.6,4.344A7.829,7.829,0,0,0,3.607,12.67a52.025,52.025,0,0,0,6.029,5.646l0,0c.862.735,1.84,1.568,2.857,2.458,1.023-.891,2-1.726,2.867-2.462a52.038,52.038,0,0,0,6.029-5.645,7.83,7.83,0,0,0,2.143-5.156,6.356,6.356,0,0,0-1.6-4.344,5.274,5.274,0,0,0-3.924-1.7,4.857,4.857,0,0,0-3.032,1.05,7.106,7.106,0,0,0-1.69,1.955.924.924,0,0,1-1.588,0,7.1,7.1,0,0,0-1.69-1.955,4.857,4.857,0,0,0-3.032-1.05Zm0,0" transform="translate(0 0)" fill="#BEF264" />
</svg>
