<svg width="26" height="26" viewBox="0 0 26 26"  xmlns="http://www.w3.org/2000/svg">
<g style="mix-blend-mode:multiply">
<path d="M23.6534 13.1058L12.6374 2.30681L1.33438 12.9998C1.2533 13.0794 1.15486 13.1392 1.0468 13.1743C0.938733 13.2095 0.823989 13.2191 0.711579 13.2025C0.599168 13.1858 0.492154 13.1433 0.398943 13.0783C0.305732 13.0133 0.228864 12.9275 0.174377 12.8278C0.0393084 12.6117 -0.0199556 12.3568 0.00593851 12.1033C0.0318326 11.8498 0.14141 11.6121 0.317377 11.4278L11.9384 0.429813C11.9497 0.409813 11.962 0.389813 11.9754 0.369813C12.0316 0.271052 12.1101 0.18674 12.2045 0.123556C12.299 0.0603721 12.4069 0.0200516 12.5196 0.00578812C12.6324 -0.00847536 12.7469 0.00371006 12.8541 0.0413792C12.9613 0.0790484 13.0583 0.141167 13.1374 0.222813L24.6944 11.5518C24.8684 11.7393 24.975 11.9795 24.9971 12.2344C25.0192 12.4892 24.9556 12.7442 24.8164 12.9588C24.7487 13.0692 24.6545 13.1609 24.5424 13.2257C24.4303 13.2905 24.3038 13.3263 24.1744 13.3298C24.0771 13.3286 23.981 13.3081 23.8916 13.2697C23.8022 13.2313 23.7212 13.1756 23.6534 13.1058Z" fill="#BEF264"/>
<path d="M21.3464 24.9988C21.3102 25.0028 21.2738 25.0048 21.2374 25.0048H2.99937C2.96296 25.0048 2.92657 25.0028 2.89037 24.9988C2.77834 25.0126 2.66466 25.0023 2.5569 24.9687C2.44915 24.9351 2.3498 24.8789 2.26548 24.8039C2.18116 24.7288 2.11382 24.6367 2.06793 24.5335C2.02204 24.4304 1.99867 24.3187 1.99937 24.2058V10.7928C1.99937 10.5822 2.08303 10.3803 2.23193 10.2314C2.38084 10.0825 2.58279 9.99881 2.79337 9.99881C3.00396 9.99881 3.20591 10.0825 3.35482 10.2314C3.50372 10.3803 3.58737 10.5822 3.58737 10.7928L12.5 2L20.8838 10.2317C20.735 10.3805 20.8838 9.67028 20.8838 10.2317C21.0326 10.0829 21.2344 9.99931 21.4449 9.99931C21.6553 9.99931 21.8572 10.0829 22.006 10.2317C22.1548 10.3805 22.2384 10.5824 22.2384 10.7928V24.2058C22.2384 24.3183 22.2145 24.4294 22.1683 24.532C22.1221 24.6345 22.0546 24.726 21.9704 24.8005C21.8862 24.875 21.787 24.9308 21.6796 24.9641C21.5722 24.9974 21.459 25.0075 21.3474 24.9938L21.3464 24.9988Z" fill="#BEF264"/>
</g>
</svg>
