<svg xmlns="http://www.w3.org/2000/Svg" width="25" height="25" viewBox="0 0 25 25">
  <g transform="translate(0 0)">
    <path d="M23.654,13.106,12.638,2.307,1.335,13a.735.735,0,0,1-1.16-.172,1.147,1.147,0,0,1,.143-1.4L11.939.43q.017-.03.037-.06A.732.732,0,0,1,13.138.223L24.695,11.552a1.149,1.149,0,0,1,.122,1.407.778.778,0,0,1-.642.371A.74.74,0,0,1,23.654,13.106Z" transform="translate(0 0)" fill="#BEF264" />

    <path d="M19.347,15a1.011,1.011,0,0,1-.109.006H1A1.008,1.008,0,0,1,.891,15,.794.794,0,0,1,0,14.207V.794a.794.794,0,0,1,1.588,0V13H18.652V.794a.793.793,0,1,1,1.587,0V14.207a.794.794,0,0,1-.891.788Z" transform="translate(2 9.999)" fill="#BEF264" />
  </g>
</svg>
